<svg id="visual" viewBox="0 0 900 600" width="900" height="600" xmlns="http://www.w3.org/2000/svg" xmlns:xlink="http://www.w3.org/1999/xlink" version="1.1"><g stroke-width="1" stroke-linejoin="bevel"><path d="M433.3 318.2L416.7 331.9L435.3 337.1Z" fill="#6e7c87" stroke="#6e7c87"></path><path d="M416.7 331.9L430.7 349.1L435.3 337.1Z" fill="#4c627b" stroke="#4c627b"></path><path d="M433.3 318.2L413.3 302.9L416.7 331.9Z" fill="#152058" stroke="#152058"></path><path d="M386.6 380.2L426.7 378.2L430.7 349.1Z" fill="#120043" stroke="#120043"></path><path d="M528.1 357.1L477.1 303.9L435.3 337.1Z" fill="#6e7c87" stroke="#6e7c87"></path><path d="M497.1 401.4L435.3 337.1L430.7 349.1Z" fill="#81888d" stroke="#81888d"></path><path d="M435.3 337.1L477.1 303.9L433.3 318.2Z" fill="#81888d" stroke="#81888d"></path><path d="M433.3 318.2L477.1 303.9L413.3 302.9Z" fill="#120043" stroke="#120043"></path><path d="M374.9 262.8L383.6 293.1L382.6 251.9Z" fill="#81888d" stroke="#81888d"></path><path d="M413.3 302.9L369.9 326.2L416.7 331.9Z" fill="#1c2e60" stroke="#1c2e60"></path><path d="M416.7 331.9L386.6 380.2L430.7 349.1Z" fill="#152058" stroke="#152058"></path><path d="M383.6 293.1L369.9 326.2L413.3 302.9Z" fill="#12124e" stroke="#12124e"></path><path d="M369.9 326.2L386.6 380.2L416.7 331.9Z" fill="#12124e" stroke="#12124e"></path><path d="M386.6 380.2L401.3 401.4L426.7 378.2Z" fill="#3d5575" stroke="#3d5575"></path><path d="M477.1 303.9L432.7 240.8L413.3 302.9Z" fill="#30486f" stroke="#30486f"></path><path d="M382.6 251.9L383.6 293.1L413.3 302.9Z" fill="#81888d" stroke="#81888d"></path><path d="M383.6 293.1L359.9 276.1L369.9 326.2Z" fill="#12124e" stroke="#12124e"></path><path d="M374.9 262.8L359.9 276.1L383.6 293.1Z" fill="#152058" stroke="#152058"></path><path d="M487.1 273.8L432.7 240.8L477.1 303.9Z" fill="#120043" stroke="#120043"></path><path d="M432.7 240.8L382.6 251.9L413.3 302.9Z" fill="#30486f" stroke="#30486f"></path><path d="M374.9 262.8L377.6 221.8L359.9 276.1Z" fill="#1c2e60" stroke="#1c2e60"></path><path d="M408.3 422.5L470.7 409.4L426.7 378.2Z" fill="#152058" stroke="#152058"></path><path d="M426.7 378.2L470.7 409.4L430.7 349.1Z" fill="#5c6f81" stroke="#5c6f81"></path><path d="M477.1 303.9L518.4 283.8L487.1 273.8Z" fill="#1c2e60" stroke="#1c2e60"></path><path d="M348.9 443.4L408.3 422.5L401.3 401.4Z" fill="#81888d" stroke="#81888d"></path><path d="M401.3 401.4L408.3 422.5L426.7 378.2Z" fill="#120043" stroke="#120043"></path><path d="M470.7 409.4L497.1 401.4L430.7 349.1Z" fill="#1c2e60" stroke="#1c2e60"></path><path d="M544.1 329.2L518.4 283.8L477.1 303.9Z" fill="#30486f" stroke="#30486f"></path><path d="M487.1 273.8L449.7 215.6L432.7 240.8Z" fill="#1c2e60" stroke="#1c2e60"></path><path d="M359.9 276.1L326.9 312.9L369.9 326.2Z" fill="#253b68" stroke="#253b68"></path><path d="M369.9 326.2L293.2 367.2L386.6 380.2Z" fill="#30486f" stroke="#30486f"></path><path d="M386.6 380.2L348.9 443.4L401.3 401.4Z" fill="#1c2e60" stroke="#1c2e60"></path><path d="M497.1 401.4L528.1 357.1L435.3 337.1Z" fill="#5c6f81" stroke="#5c6f81"></path><path d="M538.4 255.9L449.7 215.6L487.1 273.8Z" fill="#3d5575" stroke="#3d5575"></path><path d="M432.7 240.8L377.6 221.8L382.6 251.9Z" fill="#30486f" stroke="#30486f"></path><path d="M528.1 357.1L544.1 329.2L477.1 303.9Z" fill="#253b68" stroke="#253b68"></path><path d="M397.3 182.8L377.6 221.8L432.7 240.8Z" fill="#1c2e60" stroke="#1c2e60"></path><path d="M382.6 251.9L377.6 221.8L374.9 262.8Z" fill="#81888d" stroke="#81888d"></path><path d="M359.9 276.1L288.2 294.1L326.9 312.9Z" fill="#152058" stroke="#152058"></path><path d="M582.4 273.1L538.4 255.9L518.4 283.8Z" fill="#30486f" stroke="#30486f"></path><path d="M518.4 283.8L538.4 255.9L487.1 273.8Z" fill="#1c2e60" stroke="#1c2e60"></path><path d="M314.2 424.4L348.9 443.4L386.6 380.2Z" fill="#1c2e60" stroke="#1c2e60"></path><path d="M408.3 422.5L459.7 474.7L470.7 409.4Z" fill="#5c6f81" stroke="#5c6f81"></path><path d="M273.8 352.1L293.2 367.2L326.9 312.9Z" fill="#6e7c87" stroke="#6e7c87"></path><path d="M326.9 312.9L293.2 367.2L369.9 326.2Z" fill="#12124e" stroke="#12124e"></path><path d="M348.9 443.4L380.6 462.4L408.3 422.5Z" fill="#5c6f81" stroke="#5c6f81"></path><path d="M470.7 409.4L459.7 474.7L497.1 401.4Z" fill="#120043" stroke="#120043"></path><path d="M309.2 174.6L288.2 294.1L359.9 276.1Z" fill="#120043" stroke="#120043"></path><path d="M293.2 367.2L314.2 424.4L386.6 380.2Z" fill="#3d5575" stroke="#3d5575"></path><path d="M348.9 443.4L326.2 460.5L380.6 462.4Z" fill="#152058" stroke="#152058"></path><path d="M413.3 160.6L397.3 182.8L449.7 215.6Z" fill="#5c6f81" stroke="#5c6f81"></path><path d="M449.7 215.6L397.3 182.8L432.7 240.8Z" fill="#1c2e60" stroke="#1c2e60"></path><path d="M377.6 221.8L309.2 174.6L359.9 276.1Z" fill="#152058" stroke="#152058"></path><path d="M397.3 182.8L368.9 191.6L377.6 221.8Z" fill="#152058" stroke="#152058"></path><path d="M421.9 483.5L459.7 474.7L408.3 422.5Z" fill="#5c6f81" stroke="#5c6f81"></path><path d="M599.4 352.2L544.1 329.2L528.1 357.1Z" fill="#30486f" stroke="#30486f"></path><path d="M293.2 367.2L285.8 385.2L314.2 424.4Z" fill="#30486f" stroke="#30486f"></path><path d="M273.8 352.1L285.8 385.2L293.2 367.2Z" fill="#1c2e60" stroke="#1c2e60"></path><path d="M397.3 182.8L365.6 186.6L368.9 191.6Z" fill="#30486f" stroke="#30486f"></path><path d="M368.9 191.6L309.2 174.6L377.6 221.8Z" fill="#30486f" stroke="#30486f"></path><path d="M380.6 462.4L421.9 483.5L408.3 422.5Z" fill="#253b68" stroke="#253b68"></path><path d="M288.2 294.1L273.8 352.1L326.9 312.9Z" fill="#12124e" stroke="#12124e"></path><path d="M599.4 352.2L589.8 321.9L544.1 329.2Z" fill="#81888d" stroke="#81888d"></path><path d="M544.1 329.2L582.4 273.1L518.4 283.8Z" fill="#12124e" stroke="#12124e"></path><path d="M599.4 352.2L528.1 357.1L577.8 419.5Z" fill="#152058" stroke="#152058"></path><path d="M589.8 321.9L582.4 273.1L544.1 329.2Z" fill="#1c2e60" stroke="#1c2e60"></path><path d="M459.3 123.5L413.3 160.6L449.7 215.6Z" fill="#152058" stroke="#152058"></path><path d="M240.5 427.4L304.6 438.5L285.8 385.2Z" fill="#6e7c87" stroke="#6e7c87"></path><path d="M285.8 385.2L304.6 438.5L314.2 424.4Z" fill="#3d5575" stroke="#3d5575"></path><path d="M314.2 424.4L326.2 460.5L348.9 443.4Z" fill="#12124e" stroke="#12124e"></path><path d="M380.6 462.4L375.9 496.7L421.9 483.5Z" fill="#4c627b" stroke="#4c627b"></path><path d="M304.6 438.5L326.2 460.5L314.2 424.4Z" fill="#4c627b" stroke="#4c627b"></path><path d="M517.1 156.6L449.7 215.6L538.4 255.9Z" fill="#1c2e60" stroke="#1c2e60"></path><path d="M397.3 182.8L413.3 160.6L365.6 186.6Z" fill="#5c6f81" stroke="#5c6f81"></path><path d="M577.8 419.5L528.1 357.1L497.1 401.4Z" fill="#120043" stroke="#120043"></path><path d="M589.8 321.9L622.2 329.9L582.4 273.1Z" fill="#30486f" stroke="#30486f"></path><path d="M225.8 316.9L253.2 318.9L221.5 266.8Z" fill="#12124e" stroke="#12124e"></path><path d="M288.2 294.1L253.2 318.9L273.8 352.1Z" fill="#1c2e60" stroke="#1c2e60"></path><path d="M219.8 384.4L240.5 427.4L285.8 385.2Z" fill="#12124e" stroke="#12124e"></path><path d="M577.4 446.4L577.8 419.5L497.1 401.4Z" fill="#30486f" stroke="#30486f"></path><path d="M326.2 460.5L375.9 496.7L380.6 462.4Z" fill="#30486f" stroke="#30486f"></path><path d="M421.9 483.5L424.7 507.5L459.7 474.7Z" fill="#4c627b" stroke="#4c627b"></path><path d="M375.9 496.7L424.7 507.5L421.9 483.5Z" fill="#5c6f81" stroke="#5c6f81"></path><path d="M530.1 494.5L577.4 446.4L497.1 401.4Z" fill="#152058" stroke="#152058"></path><path d="M577.8 419.5L613.2 368.1L599.4 352.2Z" fill="#12124e" stroke="#12124e"></path><path d="M599.4 352.2L622.2 329.9L589.8 321.9Z" fill="#152058" stroke="#152058"></path><path d="M530.1 494.5L497.1 401.4L459.7 474.7Z" fill="#120043" stroke="#120043"></path><path d="M577.8 419.5L628.8 379.2L613.2 368.1Z" fill="#120043" stroke="#120043"></path><path d="M577.4 446.4L586.4 437.5L577.8 419.5Z" fill="#5c6f81" stroke="#5c6f81"></path><path d="M531.4 140.3L517.1 156.6L561.4 140.5Z" fill="#253b68" stroke="#253b68"></path><path d="M333.9 146.3L309.2 174.6L365.6 186.6Z" fill="#1c2e60" stroke="#1c2e60"></path><path d="M365.6 186.6L309.2 174.6L368.9 191.6Z" fill="#152058" stroke="#152058"></path><path d="M613.2 368.1L622.2 329.9L599.4 352.2Z" fill="#30486f" stroke="#30486f"></path><path d="M594.8 171.5L517.1 156.6L538.4 255.9Z" fill="#81888d" stroke="#81888d"></path><path d="M424.7 507.5L530.1 494.5L459.7 474.7Z" fill="#4c627b" stroke="#4c627b"></path><path d="M577.4 446.4L584.8 450.7L586.4 437.5Z" fill="#152058" stroke="#152058"></path><path d="M225.8 316.9L231.5 331.9L253.2 318.9Z" fill="#152058" stroke="#152058"></path><path d="M253.2 318.9L231.5 331.9L273.8 352.1Z" fill="#120043" stroke="#120043"></path><path d="M530.1 494.5L584.8 450.7L577.4 446.4Z" fill="#81888d" stroke="#81888d"></path><path d="M606.8 448.4L628.8 379.2L577.8 419.5Z" fill="#12124e" stroke="#12124e"></path><path d="M221.5 266.8L253.2 318.9L288.2 294.1Z" fill="#253b68" stroke="#253b68"></path><path d="M413.3 160.6L333.9 146.3L365.6 186.6Z" fill="#12124e" stroke="#12124e"></path><path d="M333.6 144.5L333.9 146.3L376.9 95.5Z" fill="#12124e" stroke="#12124e"></path><path d="M386.3 536.8L401.3 531.7L375.9 496.7Z" fill="#152058" stroke="#152058"></path><path d="M375.9 496.7L401.3 531.7L424.7 507.5Z" fill="#5c6f81" stroke="#5c6f81"></path><path d="M480.7 600L557.1 527.8L530.1 494.5Z" fill="#81888d" stroke="#81888d"></path><path d="M376.9 95.5L333.9 146.3L413.3 160.6Z" fill="#5c6f81" stroke="#5c6f81"></path><path d="M333.9 146.3L333.6 144.5L309.2 174.6Z" fill="#12124e" stroke="#12124e"></path><path d="M517.1 156.6L459.3 123.5L449.7 215.6Z" fill="#152058" stroke="#152058"></path><path d="M606.8 448.4L577.8 419.5L586.4 437.5Z" fill="#81888d" stroke="#81888d"></path><path d="M613.2 368.1L628.8 379.2L622.2 329.9Z" fill="#5c6f81" stroke="#5c6f81"></path><path d="M219.8 384.4L273.8 352.1L231.5 331.9Z" fill="#1c2e60" stroke="#1c2e60"></path><path d="M219.8 384.4L285.8 385.2L273.8 352.1Z" fill="#1c2e60" stroke="#1c2e60"></path><path d="M304.6 438.5L299.6 506.7L326.2 460.5Z" fill="#30486f" stroke="#30486f"></path><path d="M346.6 540.8L386.3 536.8L375.9 496.7Z" fill="#152058" stroke="#152058"></path><path d="M299.6 506.7L375.9 496.7L326.2 460.5Z" fill="#1c2e60" stroke="#1c2e60"></path><path d="M563.1 546.7L557.1 527.8L533.4 600Z" fill="#253b68" stroke="#253b68"></path><path d="M612.2 217.8L538.4 255.9L582.4 273.1Z" fill="#152058" stroke="#152058"></path><path d="M517.1 156.6L531.4 140.3L459.3 123.5Z" fill="#253b68" stroke="#253b68"></path><path d="M635.8 245.8L582.4 273.1L622.2 329.9Z" fill="#30486f" stroke="#30486f"></path><path d="M635.8 245.8L612.2 217.8L582.4 273.1Z" fill="#30486f" stroke="#30486f"></path><path d="M253.2 201.8L221.5 266.8L288.2 294.1Z" fill="#6e7c87" stroke="#6e7c87"></path><path d="M253.2 201.8L288.2 294.1L309.2 174.6Z" fill="#5c6f81" stroke="#5c6f81"></path><path d="M175.5 333.1L231.5 331.9L225.8 316.9Z" fill="#152058" stroke="#152058"></path><path d="M175.5 333.1L219.8 384.4L231.5 331.9Z" fill="#6e7c87" stroke="#6e7c87"></path><path d="M276.8 159.5L253.2 201.8L309.2 174.6Z" fill="#30486f" stroke="#30486f"></path><path d="M627.2 500.5L606.8 448.4L584.8 450.7Z" fill="#5c6f81" stroke="#5c6f81"></path><path d="M584.8 450.7L606.8 448.4L586.4 437.5Z" fill="#81888d" stroke="#81888d"></path><path d="M489.1 45.3L439.7 110.5L459.3 123.5Z" fill="#5c6f81" stroke="#5c6f81"></path><path d="M459.3 123.5L439.7 110.5L413.3 160.6Z" fill="#1c2e60" stroke="#1c2e60"></path><path d="M286.8 508.5L299.6 506.7L304.6 438.5Z" fill="#30486f" stroke="#30486f"></path><path d="M660.8 333.1L635.8 245.8L622.2 329.9Z" fill="#3d5575" stroke="#3d5575"></path><path d="M295.2 123.5L309.2 174.6L333.6 144.5Z" fill="#3d5575" stroke="#3d5575"></path><path d="M295.2 123.5L276.8 159.5L309.2 174.6Z" fill="#6e7c87" stroke="#6e7c87"></path><path d="M299.6 506.7L346.6 540.8L375.9 496.7Z" fill="#120043" stroke="#120043"></path><path d="M130.7 271.9L204.8 277.8L142.1 194.8Z" fill="#81888d" stroke="#81888d"></path><path d="M221.5 266.8L204.8 277.8L225.8 316.9Z" fill="#120043" stroke="#120043"></path><path d="M138.1 308.9L204.8 277.8L130.7 271.9Z" fill="#81888d" stroke="#81888d"></path><path d="M229.2 488.7L286.8 508.5L304.6 438.5Z" fill="#253b68" stroke="#253b68"></path><path d="M299.6 506.7L286.8 508.5L346.6 540.8Z" fill="#3d5575" stroke="#3d5575"></path><path d="M629.2 168.6L594.8 171.5L612.2 217.8Z" fill="#5c6f81" stroke="#5c6f81"></path><path d="M612.2 217.8L594.8 171.5L538.4 255.9Z" fill="#81888d" stroke="#81888d"></path><path d="M594.8 171.5L561.4 140.5L517.1 156.6Z" fill="#5c6f81" stroke="#5c6f81"></path><path d="M531.4 140.3L525.7 94.2L459.3 123.5Z" fill="#4c627b" stroke="#4c627b"></path><path d="M670.5 332.2L660.8 333.1L670.2 368.4Z" fill="#4c627b" stroke="#4c627b"></path><path d="M628.8 379.2L660.8 333.1L622.2 329.9Z" fill="#253b68" stroke="#253b68"></path><path d="M530.1 494.5L424.7 507.5L480.7 600Z" fill="#5c6f81" stroke="#5c6f81"></path><path d="M530.1 494.5L557.1 527.8L584.8 450.7Z" fill="#3d5575" stroke="#3d5575"></path><path d="M377.9 579.8L401.3 531.7L386.3 536.8Z" fill="#4c627b" stroke="#4c627b"></path><path d="M439.7 110.5L376.9 95.5L413.3 160.6Z" fill="#81888d" stroke="#81888d"></path><path d="M594.8 171.5L574.8 140.6L561.4 140.5Z" fill="#120043" stroke="#120043"></path><path d="M561.4 140.5L525.7 94.2L531.4 140.3Z" fill="#253b68" stroke="#253b68"></path><path d="M439.7 110.5L386.6 83.2L376.9 95.5Z" fill="#12124e" stroke="#12124e"></path><path d="M260.8 124.3L257.8 158.6L276.8 159.5Z" fill="#3d5575" stroke="#3d5575"></path><path d="M276.8 159.5L257.8 158.6L253.2 201.8Z" fill="#253b68" stroke="#253b68"></path><path d="M670.2 368.4L660.8 333.1L628.8 379.2Z" fill="#253b68" stroke="#253b68"></path><path d="M660.8 333.1L701.5 305.1L635.8 245.8Z" fill="#30486f" stroke="#30486f"></path><path d="M334.9 60.2L295.2 123.5L333.6 144.5Z" fill="#81888d" stroke="#81888d"></path><path d="M670.2 368.4L628.8 379.2L675.5 418.5Z" fill="#152058" stroke="#152058"></path><path d="M684.5 378.4L670.2 368.4L675.5 418.5Z" fill="#6e7c87" stroke="#6e7c87"></path><path d="M597.4 130.6L586.8 140.3L594.8 171.5Z" fill="#4c627b" stroke="#4c627b"></path><path d="M594.8 171.5L586.8 140.3L574.8 140.6Z" fill="#253b68" stroke="#253b68"></path><path d="M564.1 87.5L525.7 94.2L561.4 140.5Z" fill="#253b68" stroke="#253b68"></path><path d="M410.3 48.3L386.6 83.2L439.7 110.5Z" fill="#120043" stroke="#120043"></path><path d="M279.2 95.3L278.6 99.3L295.2 123.5Z" fill="#81888d" stroke="#81888d"></path><path d="M204.8 277.8L175.5 333.1L225.8 316.9Z" fill="#12124e" stroke="#12124e"></path><path d="M200.8 461.7L229.2 488.7L240.5 427.4Z" fill="#12124e" stroke="#12124e"></path><path d="M240.5 427.4L229.2 488.7L304.6 438.5Z" fill="#5c6f81" stroke="#5c6f81"></path><path d="M170.1 329.1L175.5 333.1L204.8 277.8Z" fill="#3d5575" stroke="#3d5575"></path><path d="M564.1 87.5L561.4 140.5L574.8 140.6Z" fill="#152058" stroke="#152058"></path><path d="M200.8 461.7L240.5 427.4L169.1 410.5Z" fill="#4c627b" stroke="#4c627b"></path><path d="M369.3 600L377.9 579.8L367.9 600Z" fill="#6e7c87" stroke="#6e7c87"></path><path d="M329.6 600L346.6 540.8L252.2 579.8Z" fill="#152058" stroke="#152058"></path><path d="M346.6 540.8L377.9 579.8L386.3 536.8Z" fill="#12124e" stroke="#12124e"></path><path d="M420.7 592.8L424.7 507.5L401.3 531.7Z" fill="#3d5575" stroke="#3d5575"></path><path d="M557.1 527.8L627.2 500.5L584.8 450.7Z" fill="#120043" stroke="#120043"></path><path d="M635.8 245.8L629.2 168.6L612.2 217.8Z" fill="#6e7c87" stroke="#6e7c87"></path><path d="M586.8 140.3L597.4 130.6L574.8 140.6Z" fill="#81888d" stroke="#81888d"></path><path d="M665.5 136.6L629.2 168.6L718.9 180.8Z" fill="#30486f" stroke="#30486f"></path><path d="M138.1 308.9L170.1 329.1L204.8 277.8Z" fill="#152058" stroke="#152058"></path><path d="M169.1 410.5L240.5 427.4L219.8 384.4Z" fill="#4c627b" stroke="#4c627b"></path><path d="M629.2 168.6L597.4 130.6L594.8 171.5Z" fill="#6e7c87" stroke="#6e7c87"></path><path d="M675.5 418.5L628.8 379.2L606.8 448.4Z" fill="#5c6f81" stroke="#5c6f81"></path><path d="M670.2 368.4L689.2 340.2L670.5 332.2Z" fill="#1c2e60" stroke="#1c2e60"></path><path d="M670.5 332.2L701.5 305.1L660.8 333.1Z" fill="#12124e" stroke="#12124e"></path><path d="M684.5 378.4L689.2 340.2L670.2 368.4Z" fill="#5c6f81" stroke="#5c6f81"></path><path d="M596.4 598.8L577.4 544.7L563.1 546.7Z" fill="#152058" stroke="#152058"></path><path d="M563.1 546.7L577.4 544.7L557.1 527.8Z" fill="#12124e" stroke="#12124e"></path><path d="M169.1 410.5L219.8 384.4L175.5 333.1Z" fill="#12124e" stroke="#12124e"></path><path d="M577.4 544.7L627.2 500.5L557.1 527.8Z" fill="#152058" stroke="#152058"></path><path d="M295.2 123.5L260.8 124.3L276.8 159.5Z" fill="#4c627b" stroke="#4c627b"></path><path d="M204.8 277.8L221.5 266.8L142.1 194.8Z" fill="#120043" stroke="#120043"></path><path d="M278.6 99.3L260.8 124.3L295.2 123.5Z" fill="#3d5575" stroke="#3d5575"></path><path d="M627.2 500.5L675.5 418.5L606.8 448.4Z" fill="#81888d" stroke="#81888d"></path><path d="M377.9 579.8L420.7 592.8L401.3 531.7Z" fill="#152058" stroke="#152058"></path><path d="M157.5 412.5L169.1 410.5L135.1 376.4Z" fill="#3d5575" stroke="#3d5575"></path><path d="M279.2 95.3L295.2 123.5L334.9 60.2Z" fill="#81888d" stroke="#81888d"></path><path d="M720.9 356.1L701.5 305.1L689.2 340.2Z" fill="#3d5575" stroke="#3d5575"></path><path d="M689.2 340.2L701.5 305.1L670.5 332.2Z" fill="#4c627b" stroke="#4c627b"></path><path d="M720.9 356.1L689.2 340.2L684.5 378.4Z" fill="#1c2e60" stroke="#1c2e60"></path><path d="M252.2 579.8L244.5 534.7L219.8 600Z" fill="#30486f" stroke="#30486f"></path><path d="M128.7 508.8L244.5 534.7L229.2 488.7Z" fill="#12124e" stroke="#12124e"></path><path d="M229.2 488.7L244.5 534.7L286.8 508.5Z" fill="#30486f" stroke="#30486f"></path><path d="M334.9 60.2L333.6 144.5L376.9 95.5Z" fill="#253b68" stroke="#253b68"></path><path d="M278.6 99.3L279.2 95.3L260.8 124.3Z" fill="#12124e" stroke="#12124e"></path><path d="M420.7 592.8L480.7 600L424.7 507.5Z" fill="#6e7c87" stroke="#6e7c87"></path><path d="M597.4 130.6L564.1 87.5L574.8 140.6Z" fill="#3d5575" stroke="#3d5575"></path><path d="M449.3 32.2L410.3 48.3L439.7 110.5Z" fill="#3d5575" stroke="#3d5575"></path><path d="M619.2 87.3L564.1 87.5L597.4 130.6Z" fill="#6e7c87" stroke="#6e7c87"></path><path d="M367.9 600L377.9 579.8L329.6 600Z" fill="#6e7c87" stroke="#6e7c87"></path><path d="M377.9 579.8L369.3 600L420.7 592.8Z" fill="#152058" stroke="#152058"></path><path d="M420.7 592.8L369.3 600L480.7 600Z" fill="#253b68" stroke="#253b68"></path><path d="M329.6 600L377.9 579.8L346.6 540.8Z" fill="#1c2e60" stroke="#1c2e60"></path><path d="M489.1 45.3L459.3 123.5L525.7 94.2Z" fill="#4c627b" stroke="#4c627b"></path><path d="M386.6 83.2L334.9 60.2L376.9 95.5Z" fill="#81888d" stroke="#81888d"></path><path d="M135.1 376.4L169.1 410.5L175.5 333.1Z" fill="#120043" stroke="#120043"></path><path d="M169.1 410.5L157.5 412.5L200.8 461.7Z" fill="#5c6f81" stroke="#5c6f81"></path><path d="M410.3 48.3L334.9 60.2L386.6 83.2Z" fill="#253b68" stroke="#253b68"></path><path d="M252.2 579.8L346.6 540.8L286.8 508.5Z" fill="#152058" stroke="#152058"></path><path d="M527.7 36.3L489.1 45.3L525.7 94.2Z" fill="#1c2e60" stroke="#1c2e60"></path><path d="M253.2 201.8L257.8 158.6L183.5 149.6Z" fill="#1c2e60" stroke="#1c2e60"></path><path d="M221.5 266.8L253.2 201.8L142.1 194.8Z" fill="#12124e" stroke="#12124e"></path><path d="M170.1 329.1L135.1 376.4L175.5 333.1Z" fill="#120043" stroke="#120043"></path><path d="M480.7 600L533.4 600L557.1 527.8Z" fill="#4c627b" stroke="#4c627b"></path><path d="M577.4 544.7L614.2 560.8L627.2 500.5Z" fill="#81888d" stroke="#81888d"></path><path d="M533.4 600L534.1 600L563.1 546.7Z" fill="#4c627b" stroke="#4c627b"></path><path d="M710.9 420.5L720.9 356.1L684.5 378.4Z" fill="#5c6f81" stroke="#5c6f81"></path><path d="M710.9 420.5L684.5 378.4L675.5 418.5Z" fill="#6e7c87" stroke="#6e7c87"></path><path d="M138.1 308.9L135.1 376.4L170.1 329.1Z" fill="#6e7c87" stroke="#6e7c87"></path><path d="M489.1 45.3L449.3 32.2L439.7 110.5Z" fill="#81888d" stroke="#81888d"></path><path d="M369.9 0L314.2 44.2L334.9 60.2Z" fill="#81888d" stroke="#81888d"></path><path d="M684.2 504.7L675.5 418.5L627.2 500.5Z" fill="#152058" stroke="#152058"></path><path d="M708.5 469.7L710.9 420.5L675.5 418.5Z" fill="#120043" stroke="#120043"></path><path d="M596.4 598.8L614.2 560.8L577.4 544.7Z" fill="#3d5575" stroke="#3d5575"></path><path d="M665.5 136.6L632.2 106.5L629.2 168.6Z" fill="#253b68" stroke="#253b68"></path><path d="M629.2 168.6L632.2 106.5L597.4 130.6Z" fill="#4c627b" stroke="#4c627b"></path><path d="M564.1 87.5L527.7 36.3L525.7 94.2Z" fill="#120043" stroke="#120043"></path><path d="M629.2 168.6L635.8 245.8L718.9 180.8Z" fill="#3d5575" stroke="#3d5575"></path><path d="M183.5 149.6L257.8 158.6L260.8 124.3Z" fill="#3d5575" stroke="#3d5575"></path><path d="M90.4 335.1L106.1 398.2L135.1 376.4Z" fill="#1c2e60" stroke="#1c2e60"></path><path d="M183.5 149.6L175.5 93.5L167.1 144.6Z" fill="#120043" stroke="#120043"></path><path d="M167.1 144.6L175.5 93.5L152.1 133.3Z" fill="#6e7c87" stroke="#6e7c87"></path><path d="M736.5 245.9L635.8 245.8L701.5 305.1Z" fill="#1c2e60" stroke="#1c2e60"></path><path d="M369.9 0L334.9 60.2L410.3 48.3Z" fill="#120043" stroke="#120043"></path><path d="M334.9 60.2L314.2 44.2L279.2 95.3Z" fill="#81888d" stroke="#81888d"></path><path d="M106.1 398.2L133.5 414.2L135.1 376.4Z" fill="#1c2e60" stroke="#1c2e60"></path><path d="M135.1 376.4L133.5 414.2L157.5 412.5Z" fill="#81888d" stroke="#81888d"></path><path d="M157.5 412.5L124.7 468.5L200.8 461.7Z" fill="#81888d" stroke="#81888d"></path><path d="M128.7 508.8L229.2 488.7L200.8 461.7Z" fill="#253b68" stroke="#253b68"></path><path d="M244.5 534.7L252.2 579.8L286.8 508.5Z" fill="#81888d" stroke="#81888d"></path><path d="M611.8 64.2L668.5 0L648.8 0Z" fill="#6e7c87" stroke="#6e7c87"></path><path d="M632.2 106.5L619.2 87.3L597.4 130.6Z" fill="#120043" stroke="#120043"></path><path d="M488.7 0L453.3 0L449.3 32.2Z" fill="#3d5575" stroke="#3d5575"></path><path d="M598.4 64.2L527.7 36.3L564.1 87.5Z" fill="#120043" stroke="#120043"></path><path d="M645.8 565.8L684.2 504.7L627.2 500.5Z" fill="#81888d" stroke="#81888d"></path><path d="M219.8 600L257.8 589.8L252.2 579.8Z" fill="#81888d" stroke="#81888d"></path><path d="M252.2 579.8L257.8 589.8L329.6 600Z" fill="#3d5575" stroke="#3d5575"></path><path d="M684.2 504.7L708.5 469.7L675.5 418.5Z" fill="#3d5575" stroke="#3d5575"></path><path d="M710.9 420.5L750.3 397.4L720.9 356.1Z" fill="#152058" stroke="#152058"></path><path d="M619.2 87.3L598.4 64.2L564.1 87.5Z" fill="#6e7c87" stroke="#6e7c87"></path><path d="M611.8 64.2L598.4 64.2L619.2 87.3Z" fill="#4c627b" stroke="#4c627b"></path><path d="M183.5 149.6L142.1 194.8L253.2 201.8Z" fill="#152058" stroke="#152058"></path><path d="M257.8 589.8L267.2 600L329.6 600Z" fill="#12124e" stroke="#12124e"></path><path d="M534.1 600L596.4 598.8L563.1 546.7Z" fill="#81888d" stroke="#81888d"></path><path d="M614.2 560.8L645.8 565.8L627.2 500.5Z" fill="#4c627b" stroke="#4c627b"></path><path d="M183.5 149.6L260.8 124.3L175.5 93.5Z" fill="#152058" stroke="#152058"></path><path d="M183.5 149.6L167.1 144.6L142.1 194.8Z" fill="#152058" stroke="#152058"></path><path d="M757.9 290.9L701.5 305.1L720.9 356.1Z" fill="#1c2e60" stroke="#1c2e60"></path><path d="M757.9 290.9L736.5 245.9L701.5 305.1Z" fill="#30486f" stroke="#30486f"></path><path d="M611.8 64.2L619.2 87.3L668.5 0Z" fill="#81888d" stroke="#81888d"></path><path d="M598.4 64.2L567.1 0L527.7 36.3Z" fill="#4c627b" stroke="#4c627b"></path><path d="M642.2 600L645.8 565.8L614.2 560.8Z" fill="#6e7c87" stroke="#6e7c87"></path><path d="M684.2 504.7L720.5 519.8L708.5 469.7Z" fill="#30486f" stroke="#30486f"></path><path d="M736.5 245.9L718.9 180.8L635.8 245.8Z" fill="#12124e" stroke="#12124e"></path><path d="M668.5 0L619.2 87.3L632.2 106.5Z" fill="#81888d" stroke="#81888d"></path><path d="M90.4 335.1L135.1 376.4L138.1 308.9Z" fill="#5c6f81" stroke="#5c6f81"></path><path d="M133.5 414.2L124.7 468.5L157.5 412.5Z" fill="#6e7c87" stroke="#6e7c87"></path><path d="M90.4 335.1L138.1 308.9L130.7 271.9Z" fill="#30486f" stroke="#30486f"></path><path d="M488.7 0L449.3 32.2L489.1 45.3Z" fill="#6e7c87" stroke="#6e7c87"></path><path d="M449.3 32.2L453.3 0L410.3 48.3Z" fill="#6e7c87" stroke="#6e7c87"></path><path d="M488.7 0L489.1 45.3L527.7 36.3Z" fill="#120043" stroke="#120043"></path><path d="M784.9 473.7L750.3 397.4L710.9 420.5Z" fill="#12124e" stroke="#12124e"></path><path d="M798.3 361.2L757.9 290.9L720.9 356.1Z" fill="#6e7c87" stroke="#6e7c87"></path><path d="M736.5 245.9L739.5 211.8L718.9 180.8Z" fill="#3d5575" stroke="#3d5575"></path><path d="M806.3 257.8L739.5 211.8L736.5 245.9Z" fill="#152058" stroke="#152058"></path><path d="M453.3 0L369.9 0L410.3 48.3Z" fill="#152058" stroke="#152058"></path><path d="M175.5 93.5L260.8 124.3L183.1 64.2Z" fill="#12124e" stroke="#12124e"></path><path d="M91.1 461.7L124.7 468.5L133.5 414.2Z" fill="#12124e" stroke="#12124e"></path><path d="M257.8 589.8L219.8 600L267.2 600Z" fill="#30486f" stroke="#30486f"></path><path d="M491.1 -2.8L488.7 0L527.7 36.3Z" fill="#5c6f81" stroke="#5c6f81"></path><path d="M52.4 233.6L103.7 236.6L36.4 177.5Z" fill="#4c627b" stroke="#4c627b"></path><path d="M142.1 194.8L103.7 236.6L130.7 271.9Z" fill="#253b68" stroke="#253b68"></path><path d="M567.1 0L491.1 -2.8L527.7 36.3Z" fill="#120043" stroke="#120043"></path><path d="M488.7 0L491.1 -2.8L453.3 0Z" fill="#5c6f81" stroke="#5c6f81"></path><path d="M453.3 0L491.1 -2.8L369.9 0Z" fill="#3d5575" stroke="#3d5575"></path><path d="M65.4 331.2L90.4 335.1L53.7 270.1Z" fill="#1c2e60" stroke="#1c2e60"></path><path d="M260.8 124.3L279.2 95.3L230.5 37.2Z" fill="#152058" stroke="#152058"></path><path d="M167.1 144.6L152.1 133.3L142.1 194.8Z" fill="#5c6f81" stroke="#5c6f81"></path><path d="M212.5 600L219.8 600L244.5 534.7Z" fill="#1c2e60" stroke="#1c2e60"></path><path d="M230.5 37.2L279.2 95.3L314.2 44.2Z" fill="#30486f" stroke="#30486f"></path><path d="M596.4 598.8L642.2 600L614.2 560.8Z" fill="#5c6f81" stroke="#5c6f81"></path><path d="M707.9 546.8L720.5 519.8L684.2 504.7Z" fill="#1c2e60" stroke="#1c2e60"></path><path d="M784.9 473.7L793.9 413.4L750.3 397.4Z" fill="#120043" stroke="#120043"></path><path d="M534.1 600L642.2 600L596.4 598.8Z" fill="#1c2e60" stroke="#1c2e60"></path><path d="M193.5 595.8L212.5 600L244.5 534.7Z" fill="#253b68" stroke="#253b68"></path><path d="M91.1 461.7L128.7 508.8L124.7 468.5Z" fill="#12124e" stroke="#12124e"></path><path d="M124.7 468.5L128.7 508.8L200.8 461.7Z" fill="#30486f" stroke="#30486f"></path><path d="M91.1 461.7L133.5 414.2L106.1 398.2Z" fill="#6e7c87" stroke="#6e7c87"></path><path d="M272.8 -1.8L307.6 0L369.9 0Z" fill="#81888d" stroke="#81888d"></path><path d="M369.9 0L307.6 0L314.2 44.2Z" fill="#152058" stroke="#152058"></path><path d="M272.8 -1.8L307.2 0L307.6 0Z" fill="#12124e" stroke="#12124e"></path><path d="M307.6 0L307.2 0L314.2 44.2Z" fill="#4c627b" stroke="#4c627b"></path><path d="M707.9 546.8L684.2 504.7L645.8 565.8Z" fill="#253b68" stroke="#253b68"></path><path d="M272.8 -1.8L230.5 37.2L314.2 44.2Z" fill="#3d5575" stroke="#3d5575"></path><path d="M642.2 600L651.8 600L645.8 565.8Z" fill="#30486f" stroke="#30486f"></path><path d="M680.5 600L707.9 546.8L645.8 565.8Z" fill="#30486f" stroke="#30486f"></path><path d="M126.7 557.7L193.5 595.8L244.5 534.7Z" fill="#253b68" stroke="#253b68"></path><path d="M604.4 0L598.4 64.2L611.8 64.2Z" fill="#30486f" stroke="#30486f"></path><path d="M604.4 0L567.1 0L598.4 64.2Z" fill="#30486f" stroke="#30486f"></path><path d="M136.1 600.8L193.1 600L193.5 595.8Z" fill="#12124e" stroke="#12124e"></path><path d="M193.5 595.8L193.1 600L212.5 600Z" fill="#6e7c87" stroke="#6e7c87"></path><path d="M230.5 37.2L183.1 64.2L260.8 124.3Z" fill="#5c6f81" stroke="#5c6f81"></path><path d="M175.5 93.5L150.7 83.3L152.1 133.3Z" fill="#120043" stroke="#120043"></path><path d="M152.1 133.3L125.1 112.5L142.1 194.8Z" fill="#30486f" stroke="#30486f"></path><path d="M41.7 456.4L91.1 461.7L106.1 398.2Z" fill="#81888d" stroke="#81888d"></path><path d="M128.7 508.8L126.7 557.7L244.5 534.7Z" fill="#5c6f81" stroke="#5c6f81"></path><path d="M758.5 179.5L744.9 153.6L718.9 180.8Z" fill="#253b68" stroke="#253b68"></path><path d="M718.9 180.8L744.9 153.6L665.5 136.6Z" fill="#253b68" stroke="#253b68"></path><path d="M758.5 179.5L718.9 180.8L739.5 211.8Z" fill="#5c6f81" stroke="#5c6f81"></path><path d="M53.7 270.1L90.4 335.1L130.7 271.9Z" fill="#120043" stroke="#120043"></path><path d="M90.4 335.1L51.7 366.2L106.1 398.2Z" fill="#30486f" stroke="#30486f"></path><path d="M813.3 183.6L758.5 179.5L739.5 211.8Z" fill="#81888d" stroke="#81888d"></path><path d="M307.2 0L272.8 -1.8L314.2 44.2Z" fill="#5c6f81" stroke="#5c6f81"></path><path d="M211.5 0L159.5 43.3L183.1 64.2Z" fill="#1c2e60" stroke="#1c2e60"></path><path d="M491.1 -2.8L272.8 -1.8L369.9 0Z" fill="#5c6f81" stroke="#5c6f81"></path><path d="M159.5 43.3L150.7 83.3L183.1 64.2Z" fill="#1c2e60" stroke="#1c2e60"></path><path d="M183.1 64.2L150.7 83.3L175.5 93.5Z" fill="#6e7c87" stroke="#6e7c87"></path><path d="M103.7 236.6L53.7 270.1L130.7 271.9Z" fill="#6e7c87" stroke="#6e7c87"></path><path d="M651.8 600L680.5 600L645.8 565.8Z" fill="#3d5575" stroke="#3d5575"></path><path d="M150.7 83.3L125.1 112.5L152.1 133.3Z" fill="#1c2e60" stroke="#1c2e60"></path><path d="M750.3 397.4L798.3 361.2L720.9 356.1Z" fill="#12124e" stroke="#12124e"></path><path d="M757.9 290.9L806.3 257.8L736.5 245.9Z" fill="#4c627b" stroke="#4c627b"></path><path d="M797.9 405.2L798.3 361.2L750.3 397.4Z" fill="#81888d" stroke="#81888d"></path><path d="M710.9 420.5L708.5 469.7L784.9 473.7Z" fill="#5c6f81" stroke="#5c6f81"></path><path d="M611.2 0L604.4 0L611.8 64.2Z" fill="#6e7c87" stroke="#6e7c87"></path><path d="M567.1 0L604.4 0L491.1 -2.8Z" fill="#5c6f81" stroke="#5c6f81"></path><path d="M708.5 469.7L720.5 519.8L773.3 511.8Z" fill="#3d5575" stroke="#3d5575"></path><path d="M784.9 473.7L708.5 469.7L773.3 511.8Z" fill="#12124e" stroke="#12124e"></path><path d="M648.8 0L611.2 0L611.8 64.2Z" fill="#30486f" stroke="#30486f"></path><path d="M604.4 0L611.2 0L491.1 -2.8Z" fill="#4c627b" stroke="#4c627b"></path><path d="M272.8 -1.8L243.8 0L230.5 37.2Z" fill="#6e7c87" stroke="#6e7c87"></path><path d="M0 301.1L51.7 366.2L65.4 331.2Z" fill="#1c2e60" stroke="#1c2e60"></path><path d="M65.4 331.2L51.7 366.2L90.4 335.1Z" fill="#120043" stroke="#120043"></path><path d="M793.9 413.4L797.9 405.2L750.3 397.4Z" fill="#3d5575" stroke="#3d5575"></path><path d="M136.1 600.8L126.7 557.7L114.7 600Z" fill="#30486f" stroke="#30486f"></path><path d="M42.4 557.7L126.7 557.7L128.7 508.8Z" fill="#120043" stroke="#120043"></path><path d="M52.4 233.6L53.7 270.1L103.7 236.6Z" fill="#3d5575" stroke="#3d5575"></path><path d="M818.6 273.8L806.3 257.8L757.9 290.9Z" fill="#3d5575" stroke="#3d5575"></path><path d="M788.9 148.3L768.9 131.5L744.9 153.6Z" fill="#30486f" stroke="#30486f"></path><path d="M818.6 273.8L757.9 290.9L825.6 322.1Z" fill="#120043" stroke="#120043"></path><path d="M793.9 413.4L842.6 414.5L797.9 405.2Z" fill="#3d5575" stroke="#3d5575"></path><path d="M773.3 511.8L720.5 519.8L707.9 546.8Z" fill="#81888d" stroke="#81888d"></path><path d="M44.7 232.8L44.4 275.8L53.7 270.1Z" fill="#120043" stroke="#120043"></path><path d="M53.7 270.1L44.4 275.8L65.4 331.2Z" fill="#253b68" stroke="#253b68"></path><path d="M36.4 177.5L103.7 236.6L142.1 194.8Z" fill="#1c2e60" stroke="#1c2e60"></path><path d="M788.3 600L773.3 511.8L707.9 546.8Z" fill="#30486f" stroke="#30486f"></path><path d="M211.5 0L183.1 64.2L230.5 37.2Z" fill="#12124e" stroke="#12124e"></path><path d="M150.7 83.3L90.4 60.2L125.1 112.5Z" fill="#4c627b" stroke="#4c627b"></path><path d="M36.4 177.5L44.7 232.8L52.4 233.6Z" fill="#12124e" stroke="#12124e"></path><path d="M272.8 -1.8L211.5 0L243.8 0Z" fill="#5c6f81" stroke="#5c6f81"></path><path d="M243.8 0L211.5 0L230.5 37.2Z" fill="#1c2e60" stroke="#1c2e60"></path><path d="M680.5 600L712.9 600L707.9 546.8Z" fill="#6e7c87" stroke="#6e7c87"></path><path d="M788.9 148.3L744.9 153.6L758.5 179.5Z" fill="#81888d" stroke="#81888d"></path><path d="M744.9 153.6L750.5 98.3L665.5 136.6Z" fill="#253b68" stroke="#253b68"></path><path d="M36.4 177.5L142.1 194.8L125.1 112.5Z" fill="#152058" stroke="#152058"></path><path d="M52.4 233.6L44.7 232.8L53.7 270.1Z" fill="#81888d" stroke="#81888d"></path><path d="M825.6 322.1L757.9 290.9L798.3 361.2Z" fill="#152058" stroke="#152058"></path><path d="M813.3 183.6L788.9 148.3L758.5 179.5Z" fill="#6e7c87" stroke="#6e7c87"></path><path d="M750.5 98.3L632.2 106.5L665.5 136.6Z" fill="#81888d" stroke="#81888d"></path><path d="M611.2 0L648.8 0L491.1 -2.8Z" fill="#1c2e60" stroke="#1c2e60"></path><path d="M768.9 131.5L750.5 98.3L744.9 153.6Z" fill="#4c627b" stroke="#4c627b"></path><path d="M825.6 322.1L798.3 361.2L872.6 343.2Z" fill="#5c6f81" stroke="#5c6f81"></path><path d="M850.3 321.1L825.6 322.1L872.6 343.2Z" fill="#120043" stroke="#120043"></path><path d="M126.7 557.7L136.1 600.8L193.5 595.8Z" fill="#3d5575" stroke="#3d5575"></path><path d="M193.1 600L136.1 600.8L212.5 600Z" fill="#253b68" stroke="#253b68"></path><path d="M212.5 600L136.1 600.8L219.8 600Z" fill="#12124e" stroke="#12124e"></path><path d="M219.8 600L136.1 600.8L267.2 600Z" fill="#81888d" stroke="#81888d"></path><path d="M267.2 600L136.1 600.8L329.6 600Z" fill="#6e7c87" stroke="#6e7c87"></path><path d="M329.6 600L136.1 600.8L367.9 600Z" fill="#3d5575" stroke="#3d5575"></path><path d="M367.9 600L136.1 600.8L369.3 600Z" fill="#1c2e60" stroke="#1c2e60"></path><path d="M369.3 600L136.1 600.8L480.7 600Z" fill="#5c6f81" stroke="#5c6f81"></path><path d="M480.7 600L136.1 600.8L533.4 600Z" fill="#3d5575" stroke="#3d5575"></path><path d="M533.4 600L136.1 600.8L534.1 600Z" fill="#4c627b" stroke="#4c627b"></path><path d="M534.1 600L136.1 600.8L642.2 600Z" fill="#4c627b" stroke="#4c627b"></path><path d="M642.2 600L136.1 600.8L651.8 600Z" fill="#30486f" stroke="#30486f"></path><path d="M651.8 600L136.1 600.8L680.5 600Z" fill="#152058" stroke="#152058"></path><path d="M680.5 600L136.1 600.8L712.9 600Z" fill="#152058" stroke="#152058"></path><path d="M42.4 557.7L128.7 508.8L91.1 461.7Z" fill="#1c2e60" stroke="#1c2e60"></path><path d="M854.6 320.9L824.3 258.9L818.6 273.8Z" fill="#253b68" stroke="#253b68"></path><path d="M818.6 273.8L824.3 258.9L806.3 257.8Z" fill="#30486f" stroke="#30486f"></path><path d="M813.3 183.6L739.5 211.8L806.3 257.8Z" fill="#81888d" stroke="#81888d"></path><path d="M768.9 131.5L774.3 53.3L750.5 98.3Z" fill="#30486f" stroke="#30486f"></path><path d="M11.4 408.4L41.7 456.4L51.7 366.2Z" fill="#81888d" stroke="#81888d"></path><path d="M51.7 366.2L41.7 456.4L106.1 398.2Z" fill="#6e7c87" stroke="#6e7c87"></path><path d="M11.4 408.4L51.7 366.2L0 404.2Z" fill="#12124e" stroke="#12124e"></path><path d="M738.5 30.2L668.5 0L632.2 106.5Z" fill="#4c627b" stroke="#4c627b"></path><path d="M648.8 0L668.5 0L491.1 -2.8Z" fill="#253b68" stroke="#253b68"></path><path d="M824.3 258.9L813.3 183.6L806.3 257.8Z" fill="#1c2e60" stroke="#1c2e60"></path><path d="M47.4 570.8L114.7 600L126.7 557.7Z" fill="#30486f" stroke="#30486f"></path><path d="M34.4 144.3L36.4 177.5L125.1 112.5Z" fill="#4c627b" stroke="#4c627b"></path><path d="M-5.6 278.9L0 301.1L44.4 275.8Z" fill="#1c2e60" stroke="#1c2e60"></path><path d="M842.6 414.5L798.3 361.2L797.9 405.2Z" fill="#30486f" stroke="#30486f"></path><path d="M825.6 322.1L850.3 321.1L818.6 273.8Z" fill="#1c2e60" stroke="#1c2e60"></path><path d="M825.6 139.3L817.6 152.6L900 189.8Z" fill="#1c2e60" stroke="#1c2e60"></path><path d="M842.6 414.5L793.9 413.4L784.9 473.7Z" fill="#4c627b" stroke="#4c627b"></path><path d="M819.6 497.7L784.9 473.7L773.3 511.8Z" fill="#12124e" stroke="#12124e"></path><path d="M819.6 497.7L842.6 414.5L784.9 473.7Z" fill="#81888d" stroke="#81888d"></path><path d="M0 301.1L65.4 331.2L44.4 275.8Z" fill="#1c2e60" stroke="#1c2e60"></path><path d="M41.7 456.4L42.4 557.7L91.1 461.7Z" fill="#120043" stroke="#120043"></path><path d="M816.3 512.5L819.6 497.7L773.3 511.8Z" fill="#3d5575" stroke="#3d5575"></path><path d="M872.6 343.2L854.6 320.9L850.3 321.1Z" fill="#81888d" stroke="#81888d"></path><path d="M850.3 321.1L854.6 320.9L818.6 273.8Z" fill="#253b68" stroke="#253b68"></path><path d="M825.6 139.3L885.6 128.5L834.3 128.5Z" fill="#4c627b" stroke="#4c627b"></path><path d="M813.3 183.6L817.6 152.6L788.9 148.3Z" fill="#4c627b" stroke="#4c627b"></path><path d="M788.9 148.3L825.6 139.3L768.9 131.5Z" fill="#5c6f81" stroke="#5c6f81"></path><path d="M750.5 98.3L738.5 30.2L632.2 106.5Z" fill="#1c2e60" stroke="#1c2e60"></path><path d="M0 251.8L44.4 275.8L44.7 232.8Z" fill="#6e7c87" stroke="#6e7c87"></path><path d="M891.6 399.4L872.6 343.2L842.6 414.5Z" fill="#12124e" stroke="#12124e"></path><path d="M836.3 549.7L816.3 512.5L773.3 511.8Z" fill="#1c2e60" stroke="#1c2e60"></path><path d="M753.9 30.2L738.5 30.2L774.3 53.3Z" fill="#6e7c87" stroke="#6e7c87"></path><path d="M159.5 43.3L90.4 60.2L150.7 83.3Z" fill="#4c627b" stroke="#4c627b"></path><path d="M143.1 0L90.4 60.2L159.5 43.3Z" fill="#152058" stroke="#152058"></path><path d="M738.5 30.2L717.2 8.2L668.5 0Z" fill="#81888d" stroke="#81888d"></path><path d="M48.7 87.5L34.4 144.3L125.1 112.5Z" fill="#1c2e60" stroke="#1c2e60"></path><path d="M0 223.9L0 251.8L44.7 232.8Z" fill="#152058" stroke="#152058"></path><path d="M0 301.1L0 404.2L51.7 366.2Z" fill="#5c6f81" stroke="#5c6f81"></path><path d="M11.4 408.4L0 442.5L41.7 456.4Z" fill="#4c627b" stroke="#4c627b"></path><path d="M0 223.9L44.7 232.8L36.4 177.5Z" fill="#5c6f81" stroke="#5c6f81"></path><path d="M272.8 -1.8L143.1 0L211.5 0Z" fill="#30486f" stroke="#30486f"></path><path d="M211.5 0L143.1 0L159.5 43.3Z" fill="#152058" stroke="#152058"></path><path d="M0 251.8L-5.6 278.9L44.4 275.8Z" fill="#1c2e60" stroke="#1c2e60"></path><path d="M0 301.1L-4.6 408.5L0 404.2Z" fill="#1c2e60" stroke="#1c2e60"></path><path d="M-5.6 278.9L-4.6 408.5L0 301.1Z" fill="#253b68" stroke="#253b68"></path><path d="M0 404.2L-4.6 408.5L11.4 408.4Z" fill="#1c2e60" stroke="#1c2e60"></path><path d="M0 251.8L0 223.9L-5.6 278.9Z" fill="#30486f" stroke="#30486f"></path><path d="M0 187.5L0 223.9L36.4 177.5Z" fill="#1c2e60" stroke="#1c2e60"></path><path d="M817.6 152.6L813.3 183.6L900 189.8Z" fill="#3d5575" stroke="#3d5575"></path><path d="M817.6 152.6L825.6 139.3L788.9 148.3Z" fill="#30486f" stroke="#30486f"></path><path d="M774.3 53.3L738.5 30.2L750.5 98.3Z" fill="#1c2e60" stroke="#1c2e60"></path><path d="M738.5 30.2L755.9 0L717.2 8.2Z" fill="#81888d" stroke="#81888d"></path><path d="M834.3 128.5L774.3 53.3L768.9 131.5Z" fill="#3d5575" stroke="#3d5575"></path><path d="M-4.6 408.5L0 442.5L11.4 408.4Z" fill="#120043" stroke="#120043"></path><path d="M842.6 414.5L872.6 343.2L798.3 361.2Z" fill="#30486f" stroke="#30486f"></path><path d="M900 197.6L813.3 183.6L824.3 258.9Z" fill="#152058" stroke="#152058"></path><path d="M891.6 399.4L900 454.4L900 405.5Z" fill="#1c2e60" stroke="#1c2e60"></path><path d="M90.4 60.2L66.7 66.2L125.1 112.5Z" fill="#120043" stroke="#120043"></path><path d="M0 169.6L0 187.5L36.4 177.5Z" fill="#1c2e60" stroke="#1c2e60"></path><path d="M56.7 0L66.7 66.2L90.4 60.2Z" fill="#4c627b" stroke="#4c627b"></path><path d="M0 471.4L42.4 557.7L41.7 456.4Z" fill="#253b68" stroke="#253b68"></path><path d="M66.7 66.2L48.7 87.5L125.1 112.5Z" fill="#4c627b" stroke="#4c627b"></path><path d="M0 169.6L36.4 177.5L34.4 144.3Z" fill="#4c627b" stroke="#4c627b"></path><path d="M0 223.9L0 187.5L-5.6 278.9Z" fill="#12124e" stroke="#12124e"></path><path d="M0 442.5L0 469.7L41.7 456.4Z" fill="#6e7c87" stroke="#6e7c87"></path><path d="M-4.6 408.5L0 469.7L0 442.5Z" fill="#30486f" stroke="#30486f"></path><path d="M-4.6 408.5L0 471.4L0 469.7Z" fill="#6e7c87" stroke="#6e7c87"></path><path d="M0 469.7L0 471.4L41.7 456.4Z" fill="#30486f" stroke="#30486f"></path><path d="M33.4 600L47.4 570.8L0 575.8Z" fill="#4c627b" stroke="#4c627b"></path><path d="M42.4 557.7L47.4 570.8L126.7 557.7Z" fill="#120043" stroke="#120043"></path><path d="M136.1 600.8L788.3 600L712.9 600Z" fill="#1c2e60" stroke="#1c2e60"></path><path d="M712.9 600L788.3 600L707.9 546.8Z" fill="#81888d" stroke="#81888d"></path><path d="M816.3 512.5L836.3 549.7L819.6 497.7Z" fill="#12124e" stroke="#12124e"></path><path d="M900 322.2L824.3 258.9L854.6 320.9Z" fill="#12124e" stroke="#12124e"></path><path d="M825.6 139.3L834.3 128.5L768.9 131.5Z" fill="#5c6f81" stroke="#5c6f81"></path><path d="M0 122.3L0 169.6L34.4 144.3Z" fill="#12124e" stroke="#12124e"></path><path d="M0 187.5L0 169.6L-5.6 278.9Z" fill="#5c6f81" stroke="#5c6f81"></path><path d="M805.6 0L753.9 30.2L774.3 53.3Z" fill="#81888d" stroke="#81888d"></path><path d="M805.6 0L755.9 0L753.9 30.2Z" fill="#3d5575" stroke="#3d5575"></path><path d="M753.9 30.2L755.9 0L738.5 30.2Z" fill="#5c6f81" stroke="#5c6f81"></path><path d="M717.2 8.2L755.9 0L668.5 0Z" fill="#30486f" stroke="#30486f"></path><path d="M668.5 0L755.9 0L491.1 -2.8Z" fill="#3d5575" stroke="#3d5575"></path><path d="M788.3 600L836.3 549.7L773.3 511.8Z" fill="#5c6f81" stroke="#5c6f81"></path><path d="M891.6 399.4L842.6 414.5L900 454.4Z" fill="#3d5575" stroke="#3d5575"></path><path d="M872.6 343.2L900 322.2L854.6 320.9Z" fill="#120043" stroke="#120043"></path><path d="M900 352.1L900 326.9L872.6 343.2Z" fill="#120043" stroke="#120043"></path><path d="M900 326.9L900 322.2L872.6 343.2Z" fill="#120043" stroke="#120043"></path><path d="M891.6 399.4L900 352.1L872.6 343.2Z" fill="#1c2e60" stroke="#1c2e60"></path><path d="M0 48.2L0 122.3L48.7 87.5Z" fill="#1c2e60" stroke="#1c2e60"></path><path d="M48.7 87.5L0 122.3L34.4 144.3Z" fill="#81888d" stroke="#81888d"></path><path d="M0 169.6L0 122.3L-5.6 278.9Z" fill="#253b68" stroke="#253b68"></path><path d="M0 48.2L48.7 87.5L66.7 66.2Z" fill="#81888d" stroke="#81888d"></path><path d="M900 454.4L842.6 414.5L819.6 497.7Z" fill="#81888d" stroke="#81888d"></path><path d="M891.6 399.4L900 405.5L900 352.1Z" fill="#3d5575" stroke="#3d5575"></path><path d="M0 575.8L47.4 570.8L42.4 557.7Z" fill="#4c627b" stroke="#4c627b"></path><path d="M47.4 570.8L33.4 600L114.7 600Z" fill="#30486f" stroke="#30486f"></path><path d="M114.7 600L33.4 600L136.1 600.8Z" fill="#4c627b" stroke="#4c627b"></path><path d="M900 500.7L900 454.4L819.6 497.7Z" fill="#30486f" stroke="#30486f"></path><path d="M900 322.2L900 197.6L824.3 258.9Z" fill="#5c6f81" stroke="#5c6f81"></path><path d="M856.3 60.2L805.6 0L774.3 53.3Z" fill="#1c2e60" stroke="#1c2e60"></path><path d="M900 197.6L900 191.5L813.3 183.6Z" fill="#81888d" stroke="#81888d"></path><path d="M900 191.5L900 189.8L813.3 183.6Z" fill="#120043" stroke="#120043"></path><path d="M-4.6 408.5L0 575.8L0 471.4Z" fill="#81888d" stroke="#81888d"></path><path d="M0 471.4L0 575.8L42.4 557.7Z" fill="#253b68" stroke="#253b68"></path><path d="M788.3 600L848.6 588.8L836.3 549.7Z" fill="#12124e" stroke="#12124e"></path><path d="M836.3 549.7L900 500.7L819.6 497.7Z" fill="#12124e" stroke="#12124e"></path><path d="M143.1 0L56.7 0L90.4 60.2Z" fill="#12124e" stroke="#12124e"></path><path d="M272.8 -1.8L56.7 0L143.1 0Z" fill="#1c2e60" stroke="#1c2e60"></path><path d="M900 189.8L885.6 128.5L825.6 139.3Z" fill="#6e7c87" stroke="#6e7c87"></path><path d="M856.3 60.2L774.3 53.3L834.3 128.5Z" fill="#6e7c87" stroke="#6e7c87"></path><path d="M755.9 0L805.6 0L491.1 -2.8Z" fill="#30486f" stroke="#30486f"></path><path d="M900 596.8L900 500.7L836.3 549.7Z" fill="#30486f" stroke="#30486f"></path><path d="M788.3 600L851.6 600L848.6 588.8Z" fill="#152058" stroke="#152058"></path><path d="M848.6 588.8L900 596.8L836.3 549.7Z" fill="#6e7c87" stroke="#6e7c87"></path><path d="M136.1 600.8L851.6 600L788.3 600Z" fill="#3d5575" stroke="#3d5575"></path><path d="M885.6 128.5L856.3 60.2L834.3 128.5Z" fill="#1c2e60" stroke="#1c2e60"></path><path d="M-4.6 408.5L0 600L0 575.8Z" fill="#152058" stroke="#152058"></path><path d="M0 575.8L0 600L33.4 600Z" fill="#1c2e60" stroke="#1c2e60"></path><path d="M33.4 600L0 600L136.1 600.8Z" fill="#12124e" stroke="#12124e"></path><path d="M56.7 0L0 48.2L66.7 66.2Z" fill="#120043" stroke="#120043"></path><path d="M0 122.3L0 48.2L-5.6 278.9Z" fill="#30486f" stroke="#30486f"></path><path d="M900 189.8L900 123.3L885.6 128.5Z" fill="#81888d" stroke="#81888d"></path><path d="M885.6 128.5L900 123.3L856.3 60.2Z" fill="#120043" stroke="#120043"></path><path d="M854.3 0L851.6 12.2L900 0Z" fill="#30486f" stroke="#30486f"></path><path d="M856.3 60.2L851.6 12.2L805.6 0Z" fill="#120043" stroke="#120043"></path><path d="M272.8 -1.8L2.4 0L56.7 0Z" fill="#5c6f81" stroke="#5c6f81"></path><path d="M56.7 0L2.4 0L0 48.2Z" fill="#6e7c87" stroke="#6e7c87"></path><path d="M900 31.2L851.6 12.2L856.3 60.2Z" fill="#120043" stroke="#120043"></path><path d="M851.6 12.2L854.3 0L805.6 0Z" fill="#12124e" stroke="#12124e"></path><path d="M805.6 0L854.3 0L491.1 -2.8Z" fill="#4c627b" stroke="#4c627b"></path><path d="M272.8 -1.8L0 0L2.4 0Z" fill="#3d5575" stroke="#3d5575"></path><path d="M2.4 0L0 0L0 48.2Z" fill="#120043" stroke="#120043"></path><path d="M0 48.2L0 0L-5.6 278.9Z" fill="#3d5575" stroke="#3d5575"></path><path d="M851.6 600L900 596.8L848.6 588.8Z" fill="#3d5575" stroke="#3d5575"></path><path d="M136.1 600.8L900 600L851.6 600Z" fill="#253b68" stroke="#253b68"></path><path d="M851.6 600L900 600L900 596.8Z" fill="#30486f" stroke="#30486f"></path><path d="M900 123.3L900 31.2L856.3 60.2Z" fill="#3d5575" stroke="#3d5575"></path><path d="M900 31.2L900 0L851.6 12.2Z" fill="#253b68" stroke="#253b68"></path><path d="M854.3 0L900 0L491.1 -2.8Z" fill="#5c6f81" stroke="#5c6f81"></path></g></svg>